<?xml version="1.0" encoding="UTF-8"?>
<svg version="1.1" viewBox="0 0 1152 896" width="1152" height="896" xmlns="http://www.w3.org/2000/svg">
<path transform="translate(218,320)" d="m0 0 5 2 12 9 13 11 5 5v2h2l11 14 8 13 3 12 2 2 3-3 1-11 10-16 12-14 8-8 14-11 8-6h4v14h21v16l1 2 16-1 3 1 1 3 1 19 4 1 2-3h7l6 4 2 4v138l-3 5-4 2-25 3-33 6-20 6-18 7-16 8-3 2h-6l-10-6-17-8-29-9-18-4-20-3-17-2-6-2-3-3-1-4v-134l3-7 5-3h7l1-15 3-5 4-1h19l1-1v-15l2-2h14l5 1z" fill="#73B97A"/>
<path transform="translate(178,353)" d="m0 0h7l22 5 26 8 19 8 17 9 5 4 5 6 2 99 4 5 11 3 5 5 3 2v2l7 5h6l2 6-16 9-13 9-11 10-7-6-10-8-17-10-16-7-21-7-20-6-8-7-3-8v-134z" fill="#203178"/>
<path transform="translate(177,352)" d="m0 0 1 3v134l3 8 7 6 24 7 22 8 16 8 12 7 11 9 6 5 7-7 15-11 17-9 21-8 30-9 6-4 4-7 1-136h1l1 19 4 1 2-3h7l6 4 2 4v138l-3 5-4 2-25 3-33 6-20 6-18 7-16 8-3 2h-6l-10-6-17-8-29-9-18-4-20-3-17-2-6-2-3-3-1-4v-134l3-7 5-3h7l1-15 3-5z" fill="#FEFEFE"/>
<path transform="translate(438,400)" d="m0 0h15l2 4 2 10 3 7 6 21 2 4 1 8 3-1 2-10h2l1-8 2-7h2l2-11 3-9 3-8h14l3 11 6 16 4 14 2 3 1 10 3-1 1-3h2l1-9 5-16 2-9 3-9 2-7h15l-1 9-3 7-2 7-3 9-5 16-5 15-3 10-1 1h-16l-3-6-4-13-3-10-3-7-2-6-2-7-3-1-1 7-3 7-12 36-2 1h-15l-2-1-3-11v-6h-2l-3-11v-5h-2l-3-10v-6h-2l-4-15-2-3-1-6z" fill="#28387D"/>
<path transform="translate(162,373)" d="m0 0h6l1 1 1 129 3 6 9 3 23 5 27 9 16 8 14 8 12 11 2 4-4-1-19-10-30-10-22-5-20-3-17-2-6-2-3-3-1-4v-134l3-7z" fill="#23347A"/>
<path transform="translate(389,374)" d="m0 0h8l5 5 1 2v138l-3 5-4 2-25 3-33 6-20 6-18 7-16 8-3-1 8-8 15-10 16-8 20-8 21-6 22-5 4-4 1-4z" fill="#7BBC81"/>
<path transform="translate(288,408)" d="m0 0h7l5 3 4 5 7 4 3 7-1 3h-8l-4 3-5-1 1-5 1-2v-6l-6-2-3 2v6l3 3v6l-4 5-2 12 15-1 4-2 2 1h6l2-3-1-5-7-1-4 5-4 3-9-1v-6l5-5 10-1v-2h9l5 3 3 3 1 3v7l-1 5 2 5-1 8-4 5-8 3h-5l-2-2-10-2-5-5v-6l1-1h9l5 4 3 3 5 1 3-3-1-5-1-1h-6l-4 1-1-1-16-2 1 10 4 6 1 1v6l-3 3 1 7 5 1 3-2v-8h-2v-5l1-1h5l3 3 9 1-1 6-5 5-4 1-2 5-5 4-6 1-7-3-4-5-1-46v-25l3-9z" fill="#FEFEFE"/>
<path transform="translate(218,320)" d="m0 0 5 2 12 9 13 11 5 5v2h2l11 14 8 13 3 12 2 2 2-1-2 4-5-4-5-5-23-12-25-9-21-6-22-4v-1h18l1-1v-15l2-2h14l5 1z" fill="#FEFEFE"/>
<path transform="translate(335,321)" d="m0 0h4v14h21v16l1 2h12v1l-23 5-26 8-21 9-13 7-7 6-2-1 1-1 1-11 10-16 12-14 8-8 14-11z" fill="#FDFDFD"/>
<path transform="translate(263,408)" d="m0 0 7 1 5 4 1 2v77l-5 6-3 1h-7l-6-4-2-4-8-5-2-4 1-5h8l5-3 4 1-1 5-1 1v7l1 1h7l1-1v-6l-3-4 1-7 4-5 1-10-15 1-2 2-8-2-4 2v6l3 2 5-1 5-5 3-2h8l1 1v6l-5 5-9 1-3 3-10-2-5-5-2-5 1-7 1-6-1-2v-6l4-6 4-3 7-1 4 3 9 1 5 5v6l-1 1h-7l-5-3-4-5h-6l-2 2 1 6 1 1h6l4-1 2 2h14v-9l-5-7 1-6 3-3-1-7-5-1-4 4 1 6 2 2-1 4-7-1-2-2-9-1 1-6 4-5 5-2 5-6z" fill="#FEFEFE"/>
<path transform="translate(604,416)" d="m0 0h12l1 2-5 12-6 15-7 15-3 9-5 12-6 9-5 4-6 2h-10l-9-4-1-3 3-8 6 1 2 1h7l5-5 1-4-5-10-2-5-7-17-7-15-3-8-1-2h15l5 10 8 20 2 4 1 6 4-1 4-14h2l1-6 5-13 2-6z" fill="#26367C"/>
<path transform="translate(952,416)" d="m0 0h16l8 3 6 5 2 5h2l3 10v11h-44l5 9 7 3h12l9-5 5 5 2 4-5 5-11 4h-14l-10-4-8-6-5-7-2-9v-8l3-10 5-7 9-6zm4 11-6 3-5 7 1 5h29l1-3-2-5-5-5-4-2z" fill="#24347B"/>
<path transform="translate(698,416)" d="m0 0h14l10 4 8 9 4 10v10l-1 1h-43l4 8 8 4h11l6-2 1-2 5 1 5 6v2l-10 6-7 2h-13l-10-4-6-4-5-6-3-6-1-12 1-7 5-9 7-7zm3 11-6 3-4 4-1 7 30 1v-6l-4-6-6-3z" fill="#23337A"/>
<path transform="translate(839,416)" d="m0 0h15l10 4 6 5 5 8 3 10-2 13-3 6-5 6-10 6-5 1h-13l-9-3-8-6-2-5h-2l-2-5v-21l2-5h2l2-5 8-6zm2 12-7 5-3 5-1 8 1 8 4 6 6 3h11l6-4 4-5 1-4v-8l-3-8-6-5-2-1z" fill="#23337A"/>
<path transform="translate(748,416)" d="m0 0h12l1 4-1 3 5-2 5-4 3-1h13l8 3 6 6 4 12v37l-2 1h-10l-3-1-1-36-2-5-4-3-8-1-8 3-3 4-1 4-1 34h-14v-57z" fill="#26367C"/>
<path transform="translate(636,416)" d="m0 0h19l10 3 1 4-4 8-12-3h-10l-6 3v5l2 2 19 4 7 3 4 3 2 6v7l-3 6-8 6-7 2h-17l-11-4-3-2 3-10 5 1 9 3h14l3-2v-6l-4-2-16-3-8-4-4-4-1-3v-9l4-7 5-4z" fill="#23347A"/>
<path transform="translate(897,401)" d="m0 0 10 1 1 15h14v12h-15l1 30 2 3 5 1 7-2 2 6v6l-4 2h-13l-7-3-5-5-2-4-1-15v-19h-9v-11l2-1h7v-14z" fill="#2B3B7F"/>
<path transform="translate(357,335)" d="m0 0h3l-1 15-24 7-16 6-19 9-11 7v-3l10-9 13-10 21-12 16-7z" fill="#203179"/>
<path transform="translate(197,336)" d="m0 0 8 1 12 5 21 11 12 8 10 8 10 9 1 2-5-2-11-7-21-10-21-7-14-4-1-1z" fill="#203178"/>
<path transform="translate(219,321)" d="m0 0 4 1 12 9 13 11 5 5v2h2l11 14 8 13-1 2-13-15-13-11-17-11-11-6z" fill="#324183"/>
<path transform="translate(335,321)" d="m0 0h4v11l-3 5-16 8-10 7-11 9-13 13 1-5 8-11 9-11 9-9 14-11z" fill="#7BBD82"/>
<path transform="translate(327,526)" d="m0 0h3v3l10 3v2l-11 4-17 5-17 7-11 6-3-1 8-8 15-10 16-8z" fill="#324482"/>
<path transform="translate(306,348)" d="m0 0 3 2-3 5-12 11-7 8-1-3 8-12z" fill="#3A4988"/>
<path transform="translate(315,337)" d="m0 0m-2 1 2 1-8 8-7 8-3 2 2-4 9-10z" fill="#A5C1B6"/>
<path transform="translate(292,482)" d="m0 0h4l1 4-2 2-4-1z" fill="#FEFEFE"/>
</svg>
