<?xml version="1.0" encoding="UTF-8"?>
<svg version="1.1" viewBox="0 0 1152 896" width="1152" height="896" xmlns="http://www.w3.org/2000/svg">
<path transform="translate(233,306)" d="m0 0 5 1 13 10 13 11 14 14 10 13 12 18 2 9-1 2 5-2 1-10 10-15 10-13 8-8 5-6 8-7 17-13 6-4h3v17l-7 4-4 1 2 5 6-1 11-5 13-5 3 1v15l-1 3-8 2v4l21-4 9-1 4 2 1 2 1 66 4 1 3-1v-46l4-1 8 3 5 6v162l-3 5-6 3-29 3-28 5-28 7-20 7-20 9-10 6-7-1-5-4-19-9-20-7-22-6-23-5-19-3-21-2-7-2-3-4-1-3v-160l4-6 5-3 7-1 1 1 1 22 1 10 7-1-1-8v-42l2-4h12l18 4 2 1v-5l-7-2-1-1v-17l3-1 25 11 5 1 1-5-9-5-1-1-1-15z" fill="#23377E"/>
<path transform="translate(418,342)" d="m0 0 5 2v158l-4 8-8 7-13 4-9 2-1-5-3-5-8-7-4-6-4-5-2-7 2-5-5-1-1-4h-5l-3-7-2-10-2-4 2-3v-8l-4-7-7-3h-7l-3 3-10 1-5 5-1 7 11-1 5-4 4-5h7l4 5-1 6-5 3-6-1h-4l-7 2h-12v-14l5-6v-7l-3-3-1-5 3-5 1-1h7l4 5-1 6-3 3-1 5 8-2 3-3h9l-2-8-5-4-5-2-4-6-5-2h-7l-5 3h-4v-2h-2l-1-7v-13l7-8 10-7 19-9 21-8 23-7 12-4z" fill="#62A689"/>
<path transform="translate(172,365)" d="m0 0 3 1 1 33v116l3 7 7 3 36 8 21 7 20 9 16 9 12 9 9 9 1 4h3l2-4 11-11 13-8h2v-2l16-8 12-5 11-4 23-7 32-7 5-5 1-3v-150l4-1 8 3 5 6v162l-3 5-6 3-29 3-28 5-28 7-20 7-20 9-10 6-7-1-5-4-19-9-20-7-22-6-23-5-19-3-21-2-7-2-3-4-1-3v-160l4-6 5-3z" fill="#22367D"/>
<path transform="translate(302,389)" d="m0 0h1l1 20h2l1 2 8-4h7l6 3 3 4v2l5 1 6 5 1 2v6l-9 1-5 4h-6v-5l3-3 1-6-3-4h-7l-3 5 2 6 2 2v7l-5 6-1 14 18-2 4-2 4 2 6-1 2-3-1-6-2-2h-7l-7 8-2 1h-11v-7l6-6 10-1 3-3h7l8 4 4 7v8l-2 4 3 6 2 9 1 5h5l2 4 4 1-1 6 4 9 4 3 1 5 4 2 7 7 2 6-2 3-20 6-17 7-10 5-20 12-11 9-4 4h-4z" fill="#4E8F93"/>
<path transform="translate(423,346)" d="m0 0h1l1 66 4 1 3-1v-44h1v148l-4 7-6 3-29 6-30 9-12 5-16 8-4 1v2l-12 7-10 9-6 7h-3l-4-6-8-8-15-10-19-10-23-9-22-6-28-6-5-4-2-6v-116l2-1 7-1 1 105 5 10 7 5 31 9 23 8 16 8 14 8 13 10 7 6 1 2 4-2 7-7 13-9 17-10 15-7 16-6 28-8 11-4 7-8 2-5z" fill="#040405"/>
<path transform="translate(434,365)" d="m0 0 9 2 6 7v162l-3 5-6 3-29 3-28 5-28 7-20 7-20 9-6 1 6-7 5-6 10-6h2v-2l16-8 12-5 11-4 23-7 32-7 5-5 1-3v-150z" fill="#5FA289"/>
<path transform="translate(489,405)" d="m0 0h16l2 5 4 24 3 12 1 11 4 1 2-9 1-1 3-15 2-5 3-17 4-6h14l4 10 4 21 2 6 4 14 3-1 1-7 2-4 3-22 2-8 1-7 5-2h11l2 1-4 21h-2l-1 11-2 7-4 19-5 18-1 2h-19l-1-1-3-16-2-4-2-10v-7h-2l-3-13h-3l-4 20-1 1-3 15-2 7-2 8h-20l-1-2-1-9-2-5-2-9-3-10-2-10-1-1-3-18-2-4-1-10z" fill="#305898"/>
<path transform="translate(418,342)" d="m0 0 5 2v86l-2 2-2-4-4-2-3-5h-2l1 2-2 6h-1v-5l-4-2-8-6-1-4-5-2-5-8-1-6 4 1 2 1v-2l-4-2-2-4v-3h-2l-4-8-7-8-4-9v-2l-6-1 2-3 27-8 5-2z" fill="#76B87E"/>
<path transform="translate(371,306)" d="m0 0h3v17l-7 4-4 1 2 5 6-1 11-5 13-5 3 1v15l-1 3-8 2 1 6-27 8-19 7-20 9-13 8-3 3h-2l1-12 10-15 10-13 8-8 5-6 8-7 17-13z" fill="#040404"/>
<path transform="translate(315,407)" d="m0 0h7l6 3 3 4v2l5 1 6 5 1 2v6l-9 1-5 4h-6v-5l3-3 1-6-3-4h-7l-3 5 2 6 2 2v7l-5 6-1 14 18-2 4-2 4 2 6-1 2-3-1-6-2-2h-7l-7 8-2 1h-11v-7l6-6 10-1 3-3h7l8 4 4 7v8l-2 4 3 6v8l-4 6-6 4-9 1-4-3-10-1-5-4-1-2v-7h11l6 5 4 4 7-1 2-3-1-7-2-1h-6l-4 2-3-2-18-1 1 14 5 5v8l-3 3v7l2 2h8l2-2v-7l-1-3h-2v-5h8l2 3h10l-1 8-6 5-4 1-4 7-5 3h-9l-5-3-4-5v-88l6-7z" fill="#2B2B2C"/>
<path transform="translate(233,306)" d="m0 0 5 1 13 10 13 11 14 14 10 13 12 18v5l-3 4-10-7-23-11-25-9-21-6-1-3v-3l-7-2-1-1v-17l3-1 25 11 5 1 1-5-9-5-1-1-1-15z" fill="#010202"/>
<path transform="translate(284,407)" d="m0 0 9 1 5 4 1 2 1 12-1 77-6 7-3 1h-7l-6-3-4-6v-2l-6-1-4-5-1-7h10l2-3 9-1v5l-3 1-1 8 4 4 6-1 2-2v-7l-3-3v-8l5-5 1-13-18 1-4 2-3-2h-6l-3 3v6l4 3h5l5-6 4-3h10l1 1v7l-5 5-11 1-3 3-9-1-6-4-3-4-1-9 3-6-2-5v-8l3-5 4-4 5-2h7l3 3 10 1 5 5 1 7-1 1h-12l-6-8-2-1h-6l-3 3 1 7 2 2 7-1 4-1 2 2 18 1-1-13-4-5v-8l3-4v-7l-2-2h-9l-1 8 3 4v6h-7l-3-4-10-1-1-3 3-6 5-4 4-1 4-6z" fill="#2B2B2C"/>
<path transform="translate(595,425)" d="m0 0h16l3 10 3 8 3 9 2 7v5h5l2-11 3-9 5-17 2-2h15l-3 12-7 18-5 14-4 11-6 16h-2l-1 4-8 6-6 2h-12l-3-2v-9l1-3h10l6-4 1-8-4-10-3-9-3-6-2-6-3-7-5-14z" fill="#305899"/>
<path transform="translate(973,424)" d="m0 0h16l10 5 6 9 3 9v11l-3 2h-36l1 7 4 3 8 2h8l9-3h4v12l-7 3-5 1h-17l-12-6-6-7-3-7-1-4v-14l3-8 4-6 7-6zm3 12-5 3-3 5v5h24v-6l-3-5-4-2z" fill="#305899"/>
<path transform="translate(863,424)" d="m0 0h16l8 3 9 8 4 8 1 6v12l-3 9-4 6-7 6-8 3h-17l-8-4-6-5-4-6-3-10v-12l5-12 4-5 10-6zm5 12-7 4-4 8v13l4 8 7 4h7l6-3 4-8v-15l-4-8-7-3z" fill="#31599A"/>
<path transform="translate(731,424)" d="m0 0h15l8 4 7 8 3 6 1 7v10l-2 1h-37v5l6 5 10 2 11-1 5-2h3l-1 12-7 3-5 1h-16l-8-3-9-7-4-8-2-7v-9l2-10h2l1-5 8-8zm3 12-6 4-2 2-1 7h24l1-3-2-6-3-3-3-1z" fill="#315999"/>
<path transform="translate(805,424)" d="m0 0h13l6 3 5 7 1 3 1 47h-16v-39l-3-5-3-2h-10l-5 3-1 2-1 41-13 1-3-1-1-58 1-1h14l1 1v6l3-1 4-4z" fill="#305799"/>
<path transform="translate(302,389)" d="m0 0h1l1 20h2l2 4-1 2-1 80h-2v18l1 1 9-1 10 4 14 15 5 9-14 8-13 9-10 9h-4z" fill="#457E96"/>
<path transform="translate(181,525)" d="m0 0 10 1 31 7 21 7 20 9 16 9 12 9 9 9 1 4h3l2-4 11-11 2 1-9 9 3 1-8 5-7-1-5-4-19-9-20-7-22-6-10-3-6-2-36-6v-2h2v-7l-2-3z" fill="#2E5395"/>
<path transform="translate(920,409)" d="m0 0h13l-1 16h9l5 1v11l-1 1h-13l1 30 3 3 10 1v11l-4 2h-13l-8-4-4-7-1-2v-34h-8l-2-1v-11l3-1h7v-14z" fill="#2F5699"/>
<path transform="translate(675,424)" d="m0 0h15l8 3v12l-9-2h-11l-4 4 2 4 16 6 7 5 3 5v10l-1 4h-2l-2 4-6 4-6 2h-19l-7-3-1-13 6 1 6 2h12l4-2 1-4-3-3-15-6-6-4-4-5v-11l3-6 9-6z" fill="#305899"/>
<path transform="translate(434,365)" d="m0 0 9 2 6 7-1 86h-1l-2-10-2 7-3 1-1-2-1-18-4-1-1-3-1-68z" fill="#76B97F"/>
<path transform="translate(380,535)" d="m0 0h2v2l7 1v2l9 4 2 1-1 1 6 1v1l-26 5-24 6-20 7-20 9-6 1 6-7 5-6 10-6h2v-2l16-8 12-5 11-4z" fill="#4B898F"/>
<path transform="translate(395,322)" d="m0 0 3 1v15l-1 3-20 5-24 8-25 12-15 9h-3l9-9 14-11 13-9 16-9 4-1v-2l16-7z" fill="#23377F"/>
<path transform="translate(210,322)" d="m0 0 9 3 23 10 8 5 12 7 14 10 10 9 8 7 1 3-4-2-14-9-21-10-25-9-14-3-7-2-1-1v-17z" fill="#23377E"/>
<path transform="translate(172,365)" d="m0 0h2v75l-1 5-2-4-1-7v-5h-2l-3-6v-2h-3l-1 3h-1l-1-48 2-6 3-3z" fill="#2F579A"/>
<path transform="translate(233,306)" d="m0 0 5 1 13 10 13 11 14 14 10 13 12 18-1 2-15-16v-2l-4-2-5-5-5-1v-3l-14-10-10-6-12-6-1-1-1-15z" fill="#2E5497"/>
<path transform="translate(371,306)" d="m0 0h3v17l-7 4-12 6-12 8-10 8-3 1v2l-8 7-11 12-2 3-1 7h-1v-9l10-15 10-13 8-8 5-6 8-7 17-13z" fill="#60A489"/>
<path transform="translate(283,416)" d="m0 0h7l3 3v7l-3 4v8l4 5v13h-18l-4-2-4 2h-5l-4-5v-5l4-4h6l8 8v2l12-1-1-7-4-4-10-1-3-3-10-1 1-4 2-1h9l3 4 7 1-2-7-2-3 1-6z" fill="#457E92"/>
<path transform="translate(263,462)" d="m0 0h6l4 2 3-2h18v13l-5 5v8l3 3v7l-5 4-6-1-3-4v-5l4-4 1-5-9 2-2 3-10-1v-4l8-1 3-3 11-1 4-4v-7h-10l-4 2-2 4-3 3-7-1-3-3v-6z" fill="#427791"/>
<path transform="translate(348,547)" d="m0 0 2 1 2 4h6l1 3h7l-2 2-15 4-19 7-15 7-6 1 6-7 5-6 10-6h2v-2z" fill="#43798F"/>
<path transform="translate(253,325)" d="m0 0 5 1v2l2 1v5l1-1h5 3l9 9 10 13 12 18-1 2-15-16v-2l-4-2-5-5-5-1v-3l-14-10-10-6 4-1 2-1z" fill="#243A7F"/>
<path transform="translate(349,322)" d="m0 0 2 1-7 7 1 3h3l1 4-14 10-3 3h-2v2l-8 7-11 12-2 3-1 7h-1v-9l10-15 10-13 8-8 5-6 8-7z" fill="#4D8D93"/>
<path transform="translate(303,402)" d="m0 0h1v7h2l2 4-1 2-1 80h-3z" fill="#4C8B94"/>
<path transform="translate(316,462)" d="m0 0h14l4 2 3-2h6l4 4-1 7-4 3-7-1-4-5-4-3-10-1z" fill="#599683"/>
<path transform="translate(325,346)" d="m0 0h2l1 4h2v2l-8 7-11 12-2 3-1 7h-1v-9l10-15z" fill="#3F7291"/>
<path transform="translate(371,306)" d="m0 0h3v17l-6 2-1-9-2-4 4-5z" fill="#679F73"/>
<path transform="translate(305,467)" d="m0 0h1v28h-3v-27z" fill="#417797"/>
<path transform="translate(303,402)" d="m0 0h1v7h2l2 4-2 5-1 14-2-1z" fill="#4F9193"/>
<path transform="translate(415,427)" d="m0 0 2 1 4 5v10l-3 1v-3l-1-4-2 1-1-9z" fill="#77BA7F"/>
<path transform="translate(317,565)" d="m0 0 2 1-9 9 3 1-8 5-7-1-2-3 5 1v2h3l2-4z" fill="#2D4C79"/>
<path transform="translate(349,322)" d="m0 0 2 1-22 22-2-1 8-8 5-6 8-7z" fill="#487F8B"/>
<path transform="translate(258,324)" d="m0 0 4 2 5 5-1 3-3-1-1 2-3-1v-5z" fill="#2D5093"/>
<path transform="translate(375,379)" d="m0 0 2 1v2h2l3 6-1 4-5-4-1-7z" fill="#77BA7F"/>
<path transform="translate(314,362)" d="m0 0 2 4-7 8-1 7h-1v-9z" fill="#2B467F"/>
<path transform="translate(300,375)" d="m0 0h1l1 7-1 2 5-1v3l-4 2-4-5-1-4 2-1z" fill="#27353F"/>
<path transform="translate(417,427)" d="m0 0 6 3v13l-2-1-1-9-2-4-2-1z" fill="#68AC87"/>
<path transform="translate(409,419)" d="m0 0 5 3 1 4 2 1h-2v2l-3 1-1-1-1-7z" fill="#69AD86"/>
<path transform="translate(262,483)" d="m0 0h8l-1 3 3 2-10-1z" fill="#2F5799"/>
<path transform="translate(264,466)" d="m0 0 5 1v4l-4 1-2-4z" fill="#292E43"/>
<path transform="translate(562,457)" d="m0 0h3v8l-1 2h-2z" fill="#131D44"/>
<path transform="translate(284,420)" d="m0 0 5 1-1 4h-4l-1-4z" fill="#2B2B31"/>
<path transform="translate(264,430)" d="m0 0 3 1v3l3 1h-9l1-4z" fill="#30589B"/>
</svg>
